<svg width="300" height="300" xmlns="http://www.w3.org/2000/svg">
<line x1="50" y1="-1106" x2="50" y2="-1095" stroke="blue" />
<line x1="50" y1="-1095" x2="51" y2="-1085" stroke="blue" />
<line x1="51" y1="-1085" x2="52" y2="-1074" stroke="blue" />
<line x1="52" y1="-1074" x2="52" y2="-1063" stroke="blue" />
<line x1="52" y1="-1063" x2="53" y2="-1052" stroke="blue" />
<line x1="53" y1="-1052" x2="53" y2="-1042" stroke="blue" />
<line x1="53" y1="-1042" x2="54" y2="-1031" stroke="blue" />
<line x1="54" y1="-1031" x2="54" y2="-1021" stroke="blue" />
<line x1="54" y1="-1021" x2="55" y2="-1010" stroke="blue" />
<line x1="55" y1="-1010" x2="55" y2="-1000" stroke="blue" />
<line x1="55" y1="-1000" x2="56" y2="-989" stroke="blue" />
<line x1="56" y1="-989" x2="56" y2="-979" stroke="blue" />
<line x1="56" y1="-979" x2="57" y2="-969" stroke="blue" />
<line x1="57" y1="-969" x2="57" y2="-959" stroke="blue" />
<line x1="57" y1="-959" x2="58" y2="-949" stroke="blue" />
<line x1="58" y1="-949" x2="58" y2="-938" stroke="blue" />
<line x1="58" y1="-938" x2="59" y2="-928" stroke="blue" />
<line x1="59" y1="-928" x2="59" y2="-918" stroke="blue" />
<line x1="59" y1="-918" x2="60" y2="-908" stroke="blue" />
<line x1="60" y1="-908" x2="60" y2="-899" stroke="blue" />
<line x1="60" y1="-899" x2="61" y2="-889" stroke="blue" />
<line x1="61" y1="-889" x2="61" y2="-879" stroke="blue" />
<line x1="61" y1="-879" x2="62" y2="-869" stroke="blue" />
<line x1="62" y1="-869" x2="62" y2="-860" stroke="blue" />
<line x1="62" y1="-860" x2="63" y2="-850" stroke="blue" />
<line x1="63" y1="-850" x2="63" y2="-840" stroke="blue" />
<line x1="63" y1="-840" x2="64" y2="-831" stroke="blue" />
<line x1="64" y1="-831" x2="64" y2="-821" stroke="blue" />
<line x1="64" y1="-821" x2="65" y2="-812" stroke="blue" />
<line x1="65" y1="-812" x2="65" y2="-802" stroke="blue" />
<line x1="65" y1="-802" x2="66" y2="-793" stroke="blue" />
<line x1="66" y1="-793" x2="66" y2="-784" stroke="blue" />
<line x1="66" y1="-784" x2="67" y2="-775" stroke="blue" />
<line x1="67" y1="-775" x2="67" y2="-766" stroke="blue" />
<line x1="67" y1="-766" x2="68" y2="-756" stroke="blue" />
<line x1="68" y1="-756" x2="68" y2="-747" stroke="blue" />
<line x1="68" y1="-747" x2="69" y2="-738" stroke="blue" />
<line x1="69" y1="-738" x2="69" y2="-729" stroke="blue" />
<line x1="69" y1="-729" x2="70" y2="-721" stroke="blue" />
<line x1="70" y1="-721" x2="70" y2="-712" stroke="blue" />
<line x1="70" y1="-712" x2="71" y2="-703" stroke="blue" />
<line x1="71" y1="-703" x2="71" y2="-694" stroke="blue" />
<line x1="71" y1="-694" x2="72" y2="-685" stroke="blue" />
<line x1="72" y1="-685" x2="72" y2="-677" stroke="blue" />
<line x1="72" y1="-677" x2="73" y2="-668" stroke="blue" />
<line x1="73" y1="-668" x2="73" y2="-660" stroke="blue" />
<line x1="73" y1="-660" x2="74" y2="-651" stroke="blue" />
<line x1="74" y1="-651" x2="74" y2="-643" stroke="blue" />
<line x1="74" y1="-643" x2="75" y2="-634" stroke="blue" />
<line x1="75" y1="-634" x2="75" y2="-626" stroke="blue" />
<line x1="75" y1="-626" x2="76" y2="-618" stroke="blue" />
<line x1="76" y1="-618" x2="76" y2="-610" stroke="blue" />
<line x1="76" y1="-610" x2="77" y2="-602" stroke="blue" />
<line x1="77" y1="-602" x2="77" y2="-593" stroke="blue" />
<line x1="77" y1="-593" x2="78" y2="-585" stroke="blue" />
<line x1="78" y1="-585" x2="78" y2="-577" stroke="blue" />
<line x1="78" y1="-577" x2="79" y2="-569" stroke="blue" />
<line x1="79" y1="-569" x2="79" y2="-562" stroke="blue" />
<line x1="79" y1="-562" x2="80" y2="-554" stroke="blue" />
<line x1="80" y1="-554" x2="80" y2="-546" stroke="blue" />
<line x1="80" y1="-546" x2="81" y2="-538" stroke="blue" />
<line x1="81" y1="-538" x2="81" y2="-531" stroke="blue" />
<line x1="81" y1="-531" x2="82" y2="-523" stroke="blue" />
<line x1="82" y1="-523" x2="82" y2="-515" stroke="blue" />
<line x1="82" y1="-515" x2="83" y2="-508" stroke="blue" />
<line x1="83" y1="-508" x2="83" y2="-501" stroke="blue" />
<line x1="83" y1="-501" x2="84" y2="-493" stroke="blue" />
<line x1="84" y1="-493" x2="84" y2="-486" stroke="blue" />
<line x1="84" y1="-486" x2="85" y2="-479" stroke="blue" />
<line x1="85" y1="-479" x2="85" y2="-471" stroke="blue" />
<line x1="85" y1="-471" x2="86" y2="-464" stroke="blue" />
<line x1="86" y1="-464" x2="86" y2="-457" stroke="blue" />
<line x1="86" y1="-457" x2="87" y2="-450" stroke="blue" />
<line x1="87" y1="-450" x2="87" y2="-443" stroke="blue" />
<line x1="87" y1="-443" x2="88" y2="-436" stroke="blue" />
<line x1="88" y1="-436" x2="88" y2="-429" stroke="blue" />
<line x1="88" y1="-429" x2="89" y2="-423" stroke="blue" />
<line x1="89" y1="-423" x2="89" y2="-416" stroke="blue" />
<line x1="89" y1="-416" x2="90" y2="-409" stroke="blue" />
<line x1="90" y1="-409" x2="90" y2="-402" stroke="blue" />
<line x1="90" y1="-402" x2="91" y2="-396" stroke="blue" />
<line x1="91" y1="-396" x2="91" y2="-389" stroke="blue" />
<line x1="91" y1="-389" x2="92" y2="-383" stroke="blue" />
<line x1="92" y1="-383" x2="92" y2="-377" stroke="blue" />
<line x1="92" y1="-377" x2="93" y2="-370" stroke="blue" />
<line x1="93" y1="-370" x2="93" y2="-364" stroke="blue" />
<line x1="93" y1="-364" x2="94" y2="-358" stroke="blue" />
<line x1="94" y1="-358" x2="94" y2="-352" stroke="blue" />
<line x1="94" y1="-352" x2="95" y2="-346" stroke="blue" />
<line x1="95" y1="-346" x2="95" y2="-340" stroke="blue" />
<line x1="95" y1="-340" x2="96" y2="-334" stroke="blue" />
<line x1="96" y1="-334" x2="96" y2="-328" stroke="blue" />
<line x1="96" y1="-328" x2="97" y2="-322" stroke="blue" />
<line x1="97" y1="-322" x2="97" y2="-316" stroke="blue" />
<line x1="97" y1="-316" x2="98" y2="-311" stroke="blue" />
<line x1="98" y1="-311" x2="98" y2="-305" stroke="blue" />
<line x1="98" y1="-305" x2="99" y2="-299" stroke="blue" />
<line x1="99" y1="-299" x2="99" y2="-294" stroke="blue" />
<line x1="99" y1="-294" x2="100" y2="-289" stroke="blue" />
<line x1="100" y1="-289" x2="100" y2="-283" stroke="blue" />
<line x1="100" y1="-283" x2="101" y2="-278" stroke="blue" />
<line x1="101" y1="-278" x2="101" y2="-273" stroke="blue" />
<line x1="101" y1="-273" x2="102" y2="-268" stroke="blue" />
<line x1="102" y1="-268" x2="102" y2="-263" stroke="blue" />
<line x1="102" y1="-263" x2="103" y2="-258" stroke="blue" />
<line x1="103" y1="-258" x2="103" y2="-253" stroke="blue" />
<line x1="103" y1="-253" x2="104" y2="-248" stroke="blue" />
<line x1="104" y1="-248" x2="104" y2="-244" stroke="blue" />
<line x1="104" y1="-244" x2="105" y2="-239" stroke="blue" />
<line x1="105" y1="-239" x2="105" y2="-234" stroke="blue" />
<line x1="105" y1="-234" x2="106" y2="-230" stroke="blue" />
<line x1="106" y1="-230" x2="106" y2="-226" stroke="blue" />
<line x1="106" y1="-226" x2="107" y2="-222" stroke="blue" />
<line x1="107" y1="-222" x2="107" y2="-217" stroke="blue" />
<line x1="107" y1="-217" x2="108" y2="-213" stroke="blue" />
<line x1="108" y1="-213" x2="108" y2="-209" stroke="blue" />
<line x1="108" y1="-209" x2="109" y2="-206" stroke="blue" />
<line x1="109" y1="-206" x2="109" y2="-202" stroke="blue" />
<line x1="109" y1="-202" x2="110" y2="-198" stroke="blue" />
<line x1="110" y1="-198" x2="110" y2="-195" stroke="blue" />
<line x1="110" y1="-195" x2="111" y2="-192" stroke="blue" />
<line x1="111" y1="-192" x2="111" y2="-189" stroke="blue" />
<line x1="111" y1="-189" x2="112" y2="-185" stroke="blue" />
<line x1="112" y1="-185" x2="112" y2="-183" stroke="blue" />
<line x1="112" y1="-183" x2="113" y2="-180" stroke="blue" />
<line x1="113" y1="-180" x2="113" y2="-177" stroke="blue" />
<line x1="113" y1="-177" x2="114" y2="-175" stroke="blue" />
<line x1="114" y1="-175" x2="114" y2="-173" stroke="blue" />
<line x1="114" y1="-173" x2="115" y2="-171" stroke="blue" />
<line x1="115" y1="-171" x2="115" y2="-169" stroke="blue" />
<line x1="115" y1="-169" x2="116" y2="-168" stroke="blue" />
<line x1="116" y1="-168" x2="116" y2="-166" stroke="blue" />
<line x1="116" y1="-166" x2="117" y2="-166" stroke="blue" />
<line x1="117" y1="-166" x2="117" y2="-165" stroke="blue" />
<line x1="117" y1="-165" x2="118" y2="-165" stroke="blue" />
<line x1="118" y1="-165" x2="118" y2="-165" stroke="blue" />
<line x1="118" y1="-165" x2="119" y2="-165" stroke="blue" />
<line x1="119" y1="-165" x2="119" y2="-166" stroke="blue" />
<line x1="119" y1="-166" x2="120" y2="-168" stroke="blue" />
<line x1="120" y1="-168" x2="120" y2="-170" stroke="blue" />
<line x1="120" y1="-170" x2="121" y2="-173" stroke="blue" />
<line x1="121" y1="-173" x2="121" y2="-177" stroke="blue" />
<line x1="121" y1="-177" x2="122" y2="-181" stroke="blue" />
<line x1="122" y1="-181" x2="122" y2="-187" stroke="blue" />
<line x1="122" y1="-187" x2="123" y2="-194" stroke="blue" />
<line x1="123" y1="-194" x2="123" y2="-203" stroke="blue" />
<line x1="123" y1="-203" x2="124" y2="-213" stroke="blue" />
<line x1="124" y1="-213" x2="124" y2="-226" stroke="blue" />
<line x1="124" y1="-226" x2="125" y2="-242" stroke="blue" />
<line x1="125" y1="-242" x2="125" y2="-263" stroke="blue" />
<line x1="125" y1="-263" x2="126" y2="-288" stroke="blue" />
<line x1="126" y1="-288" x2="126" y2="-321" stroke="blue" />
<line x1="126" y1="-321" x2="127" y2="-364" stroke="blue" />
<line x1="127" y1="-364" x2="127" y2="-422" stroke="blue" />
<line x1="127" y1="-422" x2="128" y2="-506" stroke="blue" />
<line x1="128" y1="-506" x2="128" y2="-632" stroke="blue" />
<line x1="128" y1="-632" x2="129" y2="-846" stroke="blue" />
<line x1="129" y1="-846" x2="129" y2="-1276" stroke="blue" />
<line x1="129" y1="-1276" x2="130" y2="-2573" stroke="blue" />
<line x1="130" y1="-2573" x2="130" y2="2147483647" stroke="blue" />
<line x1="130" y1="2147483647" x2="131" y2="2633" stroke="blue" />
<line x1="131" y1="2633" x2="131" y2="1336" stroke="blue" />
<line x1="131" y1="1336" x2="132" y2="905" stroke="blue" />
<line x1="132" y1="905" x2="132" y2="692" stroke="blue" />
<line x1="132" y1="692" x2="133" y2="564" stroke="blue" />
<line x1="133" y1="564" x2="133" y2="480" stroke="blue" />
<line x1="133" y1="480" x2="134" y2="421" stroke="blue" />
<line x1="134" y1="421" x2="134" y2="377" stroke="blue" />
<line x1="134" y1="377" x2="135" y2="344" stroke="blue" />
<line x1="135" y1="344" x2="135" y2="317" stroke="blue" />
<line x1="135" y1="317" x2="136" y2="296" stroke="blue" />
<line x1="136" y1="296" x2="136" y2="279" stroke="blue" />
<line x1="136" y1="279" x2="137" y2="265" stroke="blue" />
<line x1="137" y1="265" x2="137" y2="253" stroke="blue" />
<line x1="137" y1="253" x2="138" y2="243" stroke="blue" />
<line x1="138" y1="243" x2="138" y2="234" stroke="blue" />
<line x1="138" y1="234" x2="139" y2="227" stroke="blue" />
<line x1="139" y1="227" x2="139" y2="220" stroke="blue" />
<line x1="139" y1="220" x2="140" y2="215" stroke="blue" />
<line x1="140" y1="215" x2="140" y2="210" stroke="blue" />
<line x1="140" y1="210" x2="141" y2="206" stroke="blue" />
<line x1="141" y1="206" x2="141" y2="202" stroke="blue" />
<line x1="141" y1="202" x2="142" y2="199" stroke="blue" />
<line x1="142" y1="199" x2="142" y2="196" stroke="blue" />
<line x1="142" y1="196" x2="143" y2="193" stroke="blue" />
<line x1="143" y1="193" x2="143" y2="191" stroke="blue" />
<line x1="143" y1="191" x2="144" y2="189" stroke="blue" />
<line x1="144" y1="189" x2="144" y2="187" stroke="blue" />
<line x1="144" y1="187" x2="145" y2="186" stroke="blue" />
<line x1="145" y1="186" x2="145" y2="184" stroke="blue" />
<line x1="145" y1="184" x2="146" y2="183" stroke="blue" />
<line x1="146" y1="183" x2="146" y2="182" stroke="blue" />
<line x1="146" y1="182" x2="147" y2="181" stroke="blue" />
<line x1="147" y1="181" x2="147" y2="180" stroke="blue" />
<line x1="147" y1="180" x2="148" y2="179" stroke="blue" />
<line x1="148" y1="179" x2="148" y2="178" stroke="blue" />
<line x1="148" y1="178" x2="149" y2="177" stroke="blue" />
<line x1="149" y1="177" x2="149" y2="176" stroke="blue" />
<line x1="149" y1="176" x2="150" y2="176" stroke="blue" />
<line x1="150" y1="176" x2="150" y2="175" stroke="blue" />
<line x1="150" y1="175" x2="151" y2="174" stroke="blue" />
<line x1="151" y1="174" x2="151" y2="174" stroke="blue" />
<line x1="151" y1="174" x2="152" y2="173" stroke="blue" />
<line x1="152" y1="173" x2="152" y2="173" stroke="blue" />
<line x1="152" y1="173" x2="153" y2="172" stroke="blue" />
<line x1="153" y1="172" x2="153" y2="172" stroke="blue" />
<line x1="153" y1="172" x2="154" y2="171" stroke="blue" />
<line x1="154" y1="171" x2="154" y2="171" stroke="blue" />
<line x1="154" y1="171" x2="155" y2="170" stroke="blue" />
<line x1="155" y1="170" x2="155" y2="169" stroke="blue" />
<line x1="155" y1="169" x2="156" y2="169" stroke="blue" />
<line x1="156" y1="169" x2="156" y2="168" stroke="blue" />
<line x1="156" y1="168" x2="157" y2="168" stroke="blue" />
<line x1="157" y1="168" x2="157" y2="167" stroke="blue" />
<line x1="157" y1="167" x2="158" y2="167" stroke="blue" />
<line x1="158" y1="167" x2="158" y2="166" stroke="blue" />
<line x1="158" y1="166" x2="159" y2="165" stroke="blue" />
<line x1="159" y1="165" x2="159" y2="165" stroke="blue" />
<line x1="159" y1="165" x2="160" y2="164" stroke="blue" />
<line x1="160" y1="164" x2="160" y2="163" stroke="blue" />
<line x1="160" y1="163" x2="161" y2="163" stroke="blue" />
<line x1="161" y1="163" x2="161" y2="162" stroke="blue" />
<line x1="161" y1="162" x2="162" y2="161" stroke="blue" />
<line x1="162" y1="161" x2="162" y2="160" stroke="blue" />
<line x1="162" y1="160" x2="163" y2="159" stroke="blue" />
<line x1="163" y1="159" x2="163" y2="158" stroke="blue" />
<line x1="163" y1="158" x2="164" y2="158" stroke="blue" />
<line x1="164" y1="158" x2="164" y2="157" stroke="blue" />
<line x1="164" y1="157" x2="165" y2="156" stroke="blue" />
<line x1="165" y1="156" x2="165" y2="155" stroke="blue" />
<line x1="165" y1="155" x2="166" y2="154" stroke="blue" />
<line x1="166" y1="154" x2="166" y2="153" stroke="blue" />
<line x1="166" y1="153" x2="167" y2="151" stroke="blue" />
<line x1="167" y1="151" x2="167" y2="150" stroke="blue" />
<line x1="167" y1="150" x2="168" y2="149" stroke="blue" />
<line x1="168" y1="149" x2="168" y2="148" stroke="blue" />
<line x1="168" y1="148" x2="169" y2="147" stroke="blue" />
<line x1="169" y1="147" x2="169" y2="145" stroke="blue" />
<line x1="169" y1="145" x2="170" y2="144" stroke="blue" />
<line x1="170" y1="144" x2="170" y2="142" stroke="blue" />
<line x1="170" y1="142" x2="171" y2="141" stroke="blue" />
<line x1="171" y1="141" x2="171" y2="140" stroke="blue" />
<line x1="171" y1="140" x2="172" y2="138" stroke="blue" />
<line x1="172" y1="138" x2="172" y2="137" stroke="blue" />
<line x1="172" y1="137" x2="173" y2="135" stroke="blue" />
<line x1="173" y1="135" x2="173" y2="133" stroke="blue" />
<line x1="173" y1="133" x2="174" y2="132" stroke="blue" />
<line x1="174" y1="132" x2="174" y2="130" stroke="blue" />
<line x1="174" y1="130" x2="175" y2="128" stroke="blue" />
<line x1="175" y1="128" x2="175" y2="126" stroke="blue" />
<line x1="175" y1="126" x2="176" y2="125" stroke="blue" />
<line x1="176" y1="125" x2="176" y2="123" stroke="blue" />
<line x1="176" y1="123" x2="177" y2="121" stroke="blue" />
<line x1="177" y1="121" x2="177" y2="119" stroke="blue" />
<line x1="177" y1="119" x2="178" y2="117" stroke="blue" />
<line x1="178" y1="117" x2="178" y2="115" stroke="blue" />
<line x1="178" y1="115" x2="179" y2="113" stroke="blue" />
<line x1="179" y1="113" x2="179" y2="110" stroke="blue" />
<line x1="179" y1="110" x2="180" y2="108" stroke="blue" />
<line x1="180" y1="108" x2="180" y2="106" stroke="blue" />
<line x1="180" y1="106" x2="181" y2="104" stroke="blue" />
<line x1="181" y1="104" x2="181" y2="101" stroke="blue" />
<line x1="181" y1="101" x2="182" y2="99" stroke="blue" />
<line x1="182" y1="99" x2="182" y2="97" stroke="blue" />
<line x1="182" y1="97" x2="183" y2="94" stroke="blue" />
<line x1="183" y1="94" x2="183" y2="92" stroke="blue" />
<line x1="183" y1="92" x2="184" y2="89" stroke="blue" />
<line x1="184" y1="89" x2="184" y2="86" stroke="blue" />
<line x1="184" y1="86" x2="185" y2="84" stroke="blue" />
<line x1="185" y1="84" x2="185" y2="81" stroke="blue" />
<line x1="185" y1="81" x2="186" y2="78" stroke="blue" />
<line x1="186" y1="78" x2="186" y2="76" stroke="blue" />
<line x1="186" y1="76" x2="187" y2="73" stroke="blue" />
<line x1="187" y1="73" x2="187" y2="70" stroke="blue" />
<line x1="187" y1="70" x2="188" y2="67" stroke="blue" />
<line x1="188" y1="67" x2="188" y2="64" stroke="blue" />
<line x1="188" y1="64" x2="189" y2="61" stroke="blue" />
<line x1="189" y1="61" x2="189" y2="58" stroke="blue" />
<line x1="189" y1="58" x2="190" y2="55" stroke="blue" />
<line x1="190" y1="55" x2="190" y2="52" stroke="blue" />
<line x1="190" y1="52" x2="191" y2="48" stroke="blue" />
<line x1="191" y1="48" x2="191" y2="45" stroke="blue" />
<line x1="191" y1="45" x2="192" y2="42" stroke="blue" />
<line x1="192" y1="42" x2="192" y2="39" stroke="blue" />
<line x1="192" y1="39" x2="193" y2="35" stroke="blue" />
<line x1="193" y1="35" x2="193" y2="32" stroke="blue" />
<line x1="193" y1="32" x2="194" y2="28" stroke="blue" />
<line x1="194" y1="28" x2="194" y2="25" stroke="blue" />
<line x1="194" y1="25" x2="195" y2="21" stroke="blue" />
<line x1="195" y1="21" x2="195" y2="18" stroke="blue" />
<line x1="195" y1="18" x2="196" y2="14" stroke="blue" />
<line x1="196" y1="14" x2="196" y2="10" stroke="blue" />
<line x1="196" y1="10" x2="196" y2="6" stroke="blue" />
<line x1="196" y1="6" x2="197" y2="3" stroke="blue" />
<line x1="197" y1="3" x2="197" y2="-1" stroke="blue" />
<line x1="197" y1="-1" x2="198" y2="-5" stroke="blue" />
<line x1="198" y1="-5" x2="198" y2="-9" stroke="blue" />
<line x1="198" y1="-9" x2="199" y2="-13" stroke="blue" />
<line x1="199" y1="-13" x2="199" y2="-17" stroke="blue" />
<line x1="199" y1="-17" x2="200" y2="-21" stroke="blue" />
<line x1="200" y1="-21" x2="200" y2="-26" stroke="blue" />
<line x1="200" y1="-26" x2="201" y2="-30" stroke="blue" />
<line x1="201" y1="-30" x2="201" y2="-34" stroke="blue" />
<line x1="201" y1="-34" x2="202" y2="-38" stroke="blue" />
<line x1="202" y1="-38" x2="202" y2="-43" stroke="blue" />
<line x1="202" y1="-43" x2="203" y2="-47" stroke="blue" />
<line x1="203" y1="-47" x2="203" y2="-52" stroke="blue" />
<line x1="203" y1="-52" x2="204" y2="-56" stroke="blue" />
<line x1="204" y1="-56" x2="204" y2="-61" stroke="blue" />
<line x1="204" y1="-61" x2="205" y2="-65" stroke="blue" />
<line x1="205" y1="-65" x2="205" y2="-70" stroke="blue" />
<line x1="205" y1="-70" x2="206" y2="-74" stroke="blue" />
<line x1="206" y1="-74" x2="206" y2="-79" stroke="blue" />
<line x1="206" y1="-79" x2="207" y2="-84" stroke="blue" />
<line x1="207" y1="-84" x2="207" y2="-89" stroke="blue" />
<line x1="207" y1="-89" x2="208" y2="-94" stroke="blue" />
<line x1="208" y1="-94" x2="208" y2="-99" stroke="blue" />
<line x1="208" y1="-99" x2="209" y2="-104" stroke="blue" />
<line x1="209" y1="-104" x2="209" y2="-109" stroke="blue" />
<line x1="209" y1="-109" x2="210" y2="-114" stroke="blue" />
<line x1="210" y1="-114" x2="210" y2="-119" stroke="blue" />
<line x1="210" y1="-119" x2="211" y2="-124" stroke="blue" />
<line x1="211" y1="-124" x2="211" y2="-129" stroke="blue" />
<line x1="211" y1="-129" x2="212" y2="-135" stroke="blue" />
<line x1="212" y1="-135" x2="212" y2="-140" stroke="blue" />
<line x1="212" y1="-140" x2="213" y2="-145" stroke="blue" />
<line x1="213" y1="-145" x2="213" y2="-151" stroke="blue" />
<line x1="213" y1="-151" x2="214" y2="-156" stroke="blue" />
<line x1="214" y1="-156" x2="214" y2="-162" stroke="blue" />
<line x1="214" y1="-162" x2="215" y2="-167" stroke="blue" />
<line x1="215" y1="-167" x2="215" y2="-173" stroke="blue" />
<line x1="215" y1="-173" x2="216" y2="-178" stroke="blue" />
<line x1="216" y1="-178" x2="216" y2="-184" stroke="blue" />
<line x1="216" y1="-184" x2="217" y2="-190" stroke="blue" />
<line x1="217" y1="-190" x2="217" y2="-196" stroke="blue" />
<line x1="217" y1="-196" x2="218" y2="-202" stroke="blue" />
<line x1="218" y1="-202" x2="218" y2="-208" stroke="blue" />
<line x1="218" y1="-208" x2="219" y2="-213" stroke="blue" />
<line x1="219" y1="-213" x2="219" y2="-219" stroke="blue" />
<line x1="219" y1="-219" x2="220" y2="-226" stroke="blue" />
<line x1="220" y1="-226" x2="220" y2="-232" stroke="blue" />
<line x1="220" y1="-232" x2="221" y2="-238" stroke="blue" />
<line x1="221" y1="-238" x2="221" y2="-244" stroke="blue" />
<line x1="221" y1="-244" x2="222" y2="-250" stroke="blue" />
<line x1="222" y1="-250" x2="222" y2="-257" stroke="blue" />
<line x1="222" y1="-257" x2="223" y2="-263" stroke="blue" />
<line x1="223" y1="-263" x2="223" y2="-269" stroke="blue" />
<line x1="223" y1="-269" x2="224" y2="-276" stroke="blue" />
<line x1="224" y1="-276" x2="224" y2="-282" stroke="blue" />
<line x1="224" y1="-282" x2="225" y2="-289" stroke="blue" />
<line x1="225" y1="-289" x2="225" y2="-295" stroke="blue" />
<line x1="225" y1="-295" x2="226" y2="-302" stroke="blue" />
<line x1="226" y1="-302" x2="226" y2="-309" stroke="blue" />
<line x1="226" y1="-309" x2="227" y2="-315" stroke="blue" />
<line x1="227" y1="-315" x2="227" y2="-322" stroke="blue" />
<line x1="227" y1="-322" x2="228" y2="-329" stroke="blue" />
<line x1="228" y1="-329" x2="228" y2="-336" stroke="blue" />
<line x1="228" y1="-336" x2="229" y2="-343" stroke="blue" />
<line x1="229" y1="-343" x2="229" y2="-350" stroke="blue" />
<line x1="229" y1="-350" x2="230" y2="-357" stroke="blue" />
<line x1="230" y1="-357" x2="230" y2="-364" stroke="blue" />
<line x1="230" y1="-364" x2="231" y2="-371" stroke="blue" />
<line x1="231" y1="-371" x2="231" y2="-378" stroke="blue" />
<line x1="231" y1="-378" x2="232" y2="-386" stroke="blue" />
<line x1="232" y1="-386" x2="232" y2="-393" stroke="blue" />
<line x1="232" y1="-393" x2="233" y2="-400" stroke="blue" />
<line x1="233" y1="-400" x2="233" y2="-408" stroke="blue" />
<line x1="233" y1="-408" x2="234" y2="-415" stroke="blue" />
<line x1="234" y1="-415" x2="234" y2="-423" stroke="blue" />
<line x1="234" y1="-423" x2="235" y2="-430" stroke="blue" />
<line x1="235" y1="-430" x2="235" y2="-438" stroke="blue" />
<line x1="235" y1="-438" x2="236" y2="-445" stroke="blue" />
<line x1="236" y1="-445" x2="236" y2="-453" stroke="blue" />
<line x1="236" y1="-453" x2="237" y2="-461" stroke="blue" />
<line x1="237" y1="-461" x2="237" y2="-469" stroke="blue" />
<line x1="237" y1="-469" x2="238" y2="-476" stroke="blue" />
<line x1="238" y1="-476" x2="239" y2="-484" stroke="blue" />
<line x1="239" y1="-484" x2="239" y2="-492" stroke="blue" />
<line x1="239" y1="-492" x2="240" y2="-500" stroke="blue" />
<line x1="240" y1="-500" x2="240" y2="-508" stroke="blue" />
<line x1="240" y1="-508" x2="241" y2="-516" stroke="blue" />
<line x1="241" y1="-516" x2="241" y2="-524" stroke="blue" />
<line x1="241" y1="-524" x2="242" y2="-533" stroke="blue" />
<line x1="242" y1="-533" x2="242" y2="-541" stroke="blue" />
<line x1="242" y1="-541" x2="243" y2="-549" stroke="blue" />
<line x1="243" y1="-549" x2="243" y2="-557" stroke="blue" />
<line x1="243" y1="-557" x2="244" y2="-566" stroke="blue" />
<line x1="244" y1="-566" x2="244" y2="-574" stroke="blue" />
<line x1="244" y1="-574" x2="245" y2="-583" stroke="blue" />
<line x1="245" y1="-583" x2="245" y2="-591" stroke="blue" />
<line x1="245" y1="-591" x2="246" y2="-600" stroke="blue" />
<line x1="246" y1="-600" x2="246" y2="-608" stroke="blue" />
<line x1="246" y1="-608" x2="247" y2="-617" stroke="blue" />
<line x1="247" y1="-617" x2="247" y2="-626" stroke="blue" />
<line x1="247" y1="-626" x2="248" y2="-635" stroke="blue" />
<line x1="248" y1="-635" x2="248" y2="-643" stroke="blue" />
<line x1="248" y1="-643" x2="249" y2="-652" stroke="blue" />
<line x1="249" y1="-652" x2="249" y2="-661" stroke="blue" />
<line x1="249" y1="-661" x2="250" y2="-670" stroke="blue" />
<line x1="50" y1="368" x2="50" y2="367" stroke="red" />
<line x1="50" y1="367" x2="51" y2="366" stroke="red" />
<line x1="51" y1="366" x2="52" y2="365" stroke="red" />
<line x1="52" y1="365" x2="52" y2="364" stroke="red" />
<line x1="52" y1="364" x2="53" y2="363" stroke="red" />
<line x1="53" y1="363" x2="53" y2="362" stroke="red" />
<line x1="53" y1="362" x2="54" y2="361" stroke="red" />
<line x1="54" y1="361" x2="54" y2="360" stroke="red" />
<line x1="54" y1="360" x2="55" y2="359" stroke="red" />
<line x1="55" y1="359" x2="55" y2="358" stroke="red" />
<line x1="55" y1="358" x2="56" y2="357" stroke="red" />
<line x1="56" y1="357" x2="56" y2="356" stroke="red" />
<line x1="56" y1="356" x2="57" y2="355" stroke="red" />
<line x1="57" y1="355" x2="57" y2="354" stroke="red" />
<line x1="57" y1="354" x2="58" y2="353" stroke="red" />
<line x1="58" y1="353" x2="58" y2="351" stroke="red" />
<line x1="58" y1="351" x2="59" y2="350" stroke="red" />
<line x1="59" y1="350" x2="59" y2="349" stroke="red" />
<line x1="59" y1="349" x2="60" y2="348" stroke="red" />
<line x1="60" y1="348" x2="60" y2="347" stroke="red" />
<line x1="60" y1="347" x2="61" y2="346" stroke="red" />
<line x1="61" y1="346" x2="61" y2="345" stroke="red" />
<line x1="61" y1="345" x2="62" y2="344" stroke="red" />
<line x1="62" y1="344" x2="62" y2="343" stroke="red" />
<line x1="62" y1="343" x2="63" y2="342" stroke="red" />
<line x1="63" y1="342" x2="63" y2="341" stroke="red" />
<line x1="63" y1="341" x2="64" y2="340" stroke="red" />
<line x1="64" y1="340" x2="64" y2="339" stroke="red" />
<line x1="64" y1="339" x2="65" y2="338" stroke="red" />
<line x1="65" y1="338" x2="65" y2="337" stroke="red" />
<line x1="65" y1="337" x2="66" y2="336" stroke="red" />
<line x1="66" y1="336" x2="66" y2="335" stroke="red" />
<line x1="66" y1="335" x2="67" y2="334" stroke="red" />
<line x1="67" y1="334" x2="67" y2="333" stroke="red" />
<line x1="67" y1="333" x2="68" y2="332" stroke="red" />
<line x1="68" y1="332" x2="68" y2="331" stroke="red" />
<line x1="68" y1="331" x2="69" y2="330" stroke="red" />
<line x1="69" y1="330" x2="69" y2="329" stroke="red" />
<line x1="69" y1="329" x2="70" y2="327" stroke="red" />
<line x1="70" y1="327" x2="70" y2="326" stroke="red" />
<line x1="70" y1="326" x2="71" y2="325" stroke="red" />
<line x1="71" y1="325" x2="71" y2="324" stroke="red" />
<line x1="71" y1="324" x2="72" y2="323" stroke="red" />
<line x1="72" y1="323" x2="72" y2="322" stroke="red" />
<line x1="72" y1="322" x2="73" y2="321" stroke="red" />
<line x1="73" y1="321" x2="73" y2="320" stroke="red" />
<line x1="73" y1="320" x2="74" y2="319" stroke="red" />
<line x1="74" y1="319" x2="74" y2="318" stroke="red" />
<line x1="74" y1="318" x2="75" y2="317" stroke="red" />
<line x1="75" y1="317" x2="75" y2="316" stroke="red" />
<line x1="75" y1="316" x2="76" y2="315" stroke="red" />
<line x1="76" y1="315" x2="76" y2="314" stroke="red" />
<line x1="76" y1="314" x2="77" y2="312" stroke="red" />
<line x1="77" y1="312" x2="77" y2="311" stroke="red" />
<line x1="77" y1="311" x2="78" y2="310" stroke="red" />
<line x1="78" y1="310" x2="78" y2="309" stroke="red" />
<line x1="78" y1="309" x2="79" y2="308" stroke="red" />
<line x1="79" y1="308" x2="79" y2="307" stroke="red" />
<line x1="79" y1="307" x2="80" y2="306" stroke="red" />
<line x1="80" y1="306" x2="80" y2="305" stroke="red" />
<line x1="80" y1="305" x2="81" y2="304" stroke="red" />
<line x1="81" y1="304" x2="81" y2="303" stroke="red" />
<line x1="81" y1="303" x2="82" y2="301" stroke="red" />
<line x1="82" y1="301" x2="82" y2="300" stroke="red" />
<line x1="82" y1="300" x2="83" y2="299" stroke="red" />
<line x1="83" y1="299" x2="83" y2="298" stroke="red" />
<line x1="83" y1="298" x2="84" y2="297" stroke="red" />
<line x1="84" y1="297" x2="84" y2="296" stroke="red" />
<line x1="84" y1="296" x2="85" y2="295" stroke="red" />
<line x1="85" y1="295" x2="85" y2="294" stroke="red" />
<line x1="85" y1="294" x2="86" y2="292" stroke="red" />
<line x1="86" y1="292" x2="86" y2="291" stroke="red" />
<line x1="86" y1="291" x2="87" y2="290" stroke="red" />
<line x1="87" y1="290" x2="87" y2="289" stroke="red" />
<line x1="87" y1="289" x2="88" y2="288" stroke="red" />
<line x1="88" y1="288" x2="88" y2="287" stroke="red" />
<line x1="88" y1="287" x2="89" y2="285" stroke="red" />
<line x1="89" y1="285" x2="89" y2="284" stroke="red" />
<line x1="89" y1="284" x2="90" y2="283" stroke="red" />
<line x1="90" y1="283" x2="90" y2="282" stroke="red" />
<line x1="90" y1="282" x2="91" y2="281" stroke="red" />
<line x1="91" y1="281" x2="91" y2="279" stroke="red" />
<line x1="91" y1="279" x2="92" y2="278" stroke="red" />
<line x1="92" y1="278" x2="92" y2="277" stroke="red" />
<line x1="92" y1="277" x2="93" y2="276" stroke="red" />
<line x1="93" y1="276" x2="93" y2="275" stroke="red" />
<line x1="93" y1="275" x2="94" y2="273" stroke="red" />
<line x1="94" y1="273" x2="94" y2="272" stroke="red" />
<line x1="94" y1="272" x2="95" y2="271" stroke="red" />
<line x1="95" y1="271" x2="95" y2="269" stroke="red" />
<line x1="95" y1="269" x2="96" y2="268" stroke="red" />
<line x1="96" y1="268" x2="96" y2="267" stroke="red" />
<line x1="96" y1="267" x2="97" y2="265" stroke="red" />
<line x1="97" y1="265" x2="97" y2="264" stroke="red" />
<line x1="97" y1="264" x2="98" y2="263" stroke="red" />
<line x1="98" y1="263" x2="98" y2="261" stroke="red" />
<line x1="98" y1="261" x2="99" y2="260" stroke="red" />
<line x1="99" y1="260" x2="99" y2="258" stroke="red" />
<line x1="99" y1="258" x2="100" y2="257" stroke="red" />
<line x1="100" y1="257" x2="100" y2="256" stroke="red" />
<line x1="100" y1="256" x2="101" y2="254" stroke="red" />
<line x1="101" y1="254" x2="101" y2="253" stroke="red" />
<line x1="101" y1="253" x2="102" y2="251" stroke="red" />
<line x1="102" y1="251" x2="102" y2="249" stroke="red" />
<line x1="102" y1="249" x2="103" y2="248" stroke="red" />
<line x1="103" y1="248" x2="103" y2="246" stroke="red" />
<line x1="103" y1="246" x2="104" y2="244" stroke="red" />
<line x1="104" y1="244" x2="104" y2="243" stroke="red" />
<line x1="104" y1="243" x2="105" y2="241" stroke="red" />
<line x1="105" y1="241" x2="105" y2="239" stroke="red" />
<line x1="105" y1="239" x2="106" y2="237" stroke="red" />
<line x1="106" y1="237" x2="106" y2="235" stroke="red" />
<line x1="106" y1="235" x2="107" y2="233" stroke="red" />
<line x1="107" y1="233" x2="107" y2="231" stroke="red" />
<line x1="107" y1="231" x2="108" y2="229" stroke="red" />
<line x1="108" y1="229" x2="108" y2="227" stroke="red" />
<line x1="108" y1="227" x2="109" y2="225" stroke="red" />
<line x1="109" y1="225" x2="109" y2="223" stroke="red" />
<line x1="109" y1="223" x2="110" y2="220" stroke="red" />
<line x1="110" y1="220" x2="110" y2="217" stroke="red" />
<line x1="110" y1="217" x2="111" y2="215" stroke="red" />
<line x1="111" y1="215" x2="111" y2="212" stroke="red" />
<line x1="111" y1="212" x2="112" y2="209" stroke="red" />
<line x1="112" y1="209" x2="112" y2="206" stroke="red" />
<line x1="112" y1="206" x2="113" y2="203" stroke="red" />
<line x1="113" y1="203" x2="113" y2="199" stroke="red" />
<line x1="113" y1="199" x2="114" y2="195" stroke="red" />
<line x1="114" y1="195" x2="114" y2="191" stroke="red" />
<line x1="114" y1="191" x2="115" y2="187" stroke="red" />
<line x1="115" y1="187" x2="115" y2="182" stroke="red" />
<line x1="115" y1="182" x2="116" y2="177" stroke="red" />
<line x1="116" y1="177" x2="116" y2="172" stroke="red" />
<line x1="116" y1="172" x2="117" y2="166" stroke="red" />
<line x1="117" y1="166" x2="117" y2="159" stroke="red" />
<line x1="117" y1="159" x2="118" y2="152" stroke="red" />
<line x1="118" y1="152" x2="118" y2="144" stroke="red" />
<line x1="118" y1="144" x2="119" y2="135" stroke="red" />
<line x1="119" y1="135" x2="119" y2="125" stroke="red" />
<line x1="119" y1="125" x2="120" y2="113" stroke="red" />
<line x1="120" y1="113" x2="120" y2="100" stroke="red" />
<line x1="120" y1="100" x2="121" y2="85" stroke="red" />
<line x1="121" y1="85" x2="121" y2="68" stroke="red" />
<line x1="121" y1="68" x2="122" y2="47" stroke="red" />
<line x1="122" y1="47" x2="122" y2="23" stroke="red" />
<line x1="122" y1="23" x2="123" y2="-6" stroke="red" />
<line x1="123" y1="-6" x2="123" y2="-41" stroke="red" />
<line x1="123" y1="-41" x2="124" y2="-85" stroke="red" />
<line x1="124" y1="-85" x2="124" y2="-139" stroke="red" />
<line x1="124" y1="-139" x2="125" y2="-209" stroke="red" />
<line x1="125" y1="-209" x2="125" y2="-300" stroke="red" />
<line x1="125" y1="-300" x2="126" y2="-423" stroke="red" />
<line x1="126" y1="-423" x2="126" y2="-595" stroke="red" />
<line x1="126" y1="-595" x2="127" y2="-844" stroke="red" />
<line x1="127" y1="-844" x2="127" y2="-1228" stroke="red" />
<line x1="127" y1="-1228" x2="128" y2="-1865" stroke="red" />
<line x1="128" y1="-1865" x2="128" y2="-3036" stroke="red" />
<line x1="128" y1="-3036" x2="129" y2="-5565" stroke="red" />
<line x1="129" y1="-5565" x2="129" y2="-12788" stroke="red" />
<line x1="129" y1="-12788" x2="130" y2="-51789" stroke="red" />
<line x1="130" y1="-51789" x2="130" y2="-2147483648" stroke="red" />
<line x1="130" y1="-2147483648" x2="131" y2="-51791" stroke="red" />
<line x1="131" y1="-51791" x2="131" y2="-12792" stroke="red" />
<line x1="131" y1="-12792" x2="132" y2="-5571" stroke="red" />
<line x1="132" y1="-5571" x2="132" y2="-3044" stroke="red" />
<line x1="132" y1="-3044" x2="133" y2="-1875" stroke="red" />
<line x1="133" y1="-1875" x2="133" y2="-1240" stroke="red" />
<line x1="133" y1="-1240" x2="134" y2="-858" stroke="red" />
<line x1="134" y1="-858" x2="134" y2="-610" stroke="red" />
<line x1="134" y1="-610" x2="135" y2="-441" stroke="red" />
<line x1="135" y1="-441" x2="135" y2="-320" stroke="red" />
<line x1="135" y1="-320" x2="136" y2="-231" stroke="red" />
<line x1="136" y1="-231" x2="136" y2="-163" stroke="red" />
<line x1="136" y1="-163" x2="137" y2="-111" stroke="red" />
<line x1="137" y1="-111" x2="137" y2="-69" stroke="red" />
<line x1="137" y1="-69" x2="138" y2="-36" stroke="red" />
<line x1="138" y1="-36" x2="138" y2="-9" stroke="red" />
<line x1="138" y1="-9" x2="139" y2="13" stroke="red" />
<line x1="139" y1="13" x2="139" y2="32" stroke="red" />
<line x1="139" y1="32" x2="140" y2="47" stroke="red" />
<line x1="140" y1="47" x2="140" y2="60" stroke="red" />
<line x1="140" y1="60" x2="141" y2="71" stroke="red" />
<line x1="141" y1="71" x2="141" y2="81" stroke="red" />
<line x1="141" y1="81" x2="142" y2="89" stroke="red" />
<line x1="142" y1="89" x2="142" y2="96" stroke="red" />
<line x1="142" y1="96" x2="143" y2="102" stroke="red" />
<line x1="143" y1="102" x2="143" y2="107" stroke="red" />
<line x1="143" y1="107" x2="144" y2="112" stroke="red" />
<line x1="144" y1="112" x2="144" y2="116" stroke="red" />
<line x1="144" y1="116" x2="145" y2="119" stroke="red" />
<line x1="145" y1="119" x2="145" y2="122" stroke="red" />
<line x1="145" y1="122" x2="146" y2="125" stroke="red" />
<line x1="146" y1="125" x2="146" y2="127" stroke="red" />
<line x1="146" y1="127" x2="147" y2="129" stroke="red" />
<line x1="147" y1="129" x2="147" y2="131" stroke="red" />
<line x1="147" y1="131" x2="148" y2="133" stroke="red" />
<line x1="148" y1="133" x2="148" y2="134" stroke="red" />
<line x1="148" y1="134" x2="149" y2="135" stroke="red" />
<line x1="149" y1="135" x2="149" y2="136" stroke="red" />
<line x1="149" y1="136" x2="150" y2="137" stroke="red" />
<line x1="150" y1="137" x2="150" y2="138" stroke="red" />
<line x1="150" y1="138" x2="151" y2="138" stroke="red" />
<line x1="151" y1="138" x2="151" y2="139" stroke="red" />
<line x1="151" y1="139" x2="152" y2="139" stroke="red" />
<line x1="152" y1="139" x2="152" y2="139" stroke="red" />
<line x1="152" y1="139" x2="153" y2="139" stroke="red" />
<line x1="153" y1="139" x2="153" y2="139" stroke="red" />
<line x1="153" y1="139" x2="154" y2="139" stroke="red" />
<line x1="154" y1="139" x2="154" y2="139" stroke="red" />
<line x1="154" y1="139" x2="155" y2="139" stroke="red" />
<line x1="155" y1="139" x2="155" y2="139" stroke="red" />
<line x1="155" y1="139" x2="156" y2="139" stroke="red" />
<line x1="156" y1="139" x2="156" y2="139" stroke="red" />
<line x1="156" y1="139" x2="157" y2="138" stroke="red" />
<line x1="157" y1="138" x2="157" y2="138" stroke="red" />
<line x1="157" y1="138" x2="158" y2="138" stroke="red" />
<line x1="158" y1="138" x2="158" y2="137" stroke="red" />
<line x1="158" y1="137" x2="159" y2="137" stroke="red" />
<line x1="159" y1="137" x2="159" y2="137" stroke="red" />
<line x1="159" y1="137" x2="160" y2="136" stroke="red" />
<line x1="160" y1="136" x2="160" y2="136" stroke="red" />
<line x1="160" y1="136" x2="161" y2="135" stroke="red" />
<line x1="161" y1="135" x2="161" y2="134" stroke="red" />
<line x1="161" y1="134" x2="162" y2="134" stroke="red" />
<line x1="162" y1="134" x2="162" y2="133" stroke="red" />
<line x1="162" y1="133" x2="163" y2="133" stroke="red" />
<line x1="163" y1="133" x2="163" y2="132" stroke="red" />
<line x1="163" y1="132" x2="164" y2="131" stroke="red" />
<line x1="164" y1="131" x2="164" y2="131" stroke="red" />
<line x1="164" y1="131" x2="165" y2="130" stroke="red" />
<line x1="165" y1="130" x2="165" y2="129" stroke="red" />
<line x1="165" y1="129" x2="166" y2="129" stroke="red" />
<line x1="166" y1="129" x2="166" y2="128" stroke="red" />
<line x1="166" y1="128" x2="167" y2="127" stroke="red" />
<line x1="167" y1="127" x2="167" y2="127" stroke="red" />
<line x1="167" y1="127" x2="168" y2="126" stroke="red" />
<line x1="168" y1="126" x2="168" y2="125" stroke="red" />
<line x1="168" y1="125" x2="169" y2="124" stroke="red" />
<line x1="169" y1="124" x2="169" y2="123" stroke="red" />
<line x1="169" y1="123" x2="170" y2="123" stroke="red" />
<line x1="170" y1="123" x2="170" y2="122" stroke="red" />
<line x1="170" y1="122" x2="171" y2="121" stroke="red" />
<line x1="171" y1="121" x2="171" y2="120" stroke="red" />
<line x1="171" y1="120" x2="172" y2="119" stroke="red" />
<line x1="172" y1="119" x2="172" y2="119" stroke="red" />
<line x1="172" y1="119" x2="173" y2="118" stroke="red" />
<line x1="173" y1="118" x2="173" y2="117" stroke="red" />
<line x1="173" y1="117" x2="174" y2="116" stroke="red" />
<line x1="174" y1="116" x2="174" y2="115" stroke="red" />
<line x1="174" y1="115" x2="175" y2="114" stroke="red" />
<line x1="175" y1="114" x2="175" y2="114" stroke="red" />
<line x1="175" y1="114" x2="176" y2="113" stroke="red" />
<line x1="176" y1="113" x2="176" y2="112" stroke="red" />
<line x1="176" y1="112" x2="177" y2="111" stroke="red" />
<line x1="177" y1="111" x2="177" y2="110" stroke="red" />
<line x1="177" y1="110" x2="178" y2="109" stroke="red" />
<line x1="178" y1="109" x2="178" y2="108" stroke="red" />
<line x1="178" y1="108" x2="179" y2="107" stroke="red" />
<line x1="179" y1="107" x2="179" y2="107" stroke="red" />
<line x1="179" y1="107" x2="180" y2="106" stroke="red" />
<line x1="180" y1="106" x2="180" y2="105" stroke="red" />
<line x1="180" y1="105" x2="181" y2="104" stroke="red" />
<line x1="181" y1="104" x2="181" y2="103" stroke="red" />
<line x1="181" y1="103" x2="182" y2="102" stroke="red" />
<line x1="182" y1="102" x2="182" y2="101" stroke="red" />
<line x1="182" y1="101" x2="183" y2="100" stroke="red" />
<line x1="183" y1="100" x2="183" y2="99" stroke="red" />
<line x1="183" y1="99" x2="184" y2="98" stroke="red" />
<line x1="184" y1="98" x2="184" y2="98" stroke="red" />
<line x1="184" y1="98" x2="185" y2="97" stroke="red" />
<line x1="185" y1="97" x2="185" y2="96" stroke="red" />
<line x1="185" y1="96" x2="186" y2="95" stroke="red" />
<line x1="186" y1="95" x2="186" y2="94" stroke="red" />
<line x1="186" y1="94" x2="187" y2="93" stroke="red" />
<line x1="187" y1="93" x2="187" y2="92" stroke="red" />
<line x1="187" y1="92" x2="188" y2="91" stroke="red" />
<line x1="188" y1="91" x2="188" y2="90" stroke="red" />
<line x1="188" y1="90" x2="189" y2="89" stroke="red" />
<line x1="189" y1="89" x2="189" y2="88" stroke="red" />
<line x1="189" y1="88" x2="190" y2="87" stroke="red" />
<line x1="190" y1="87" x2="190" y2="86" stroke="red" />
<line x1="190" y1="86" x2="191" y2="85" stroke="red" />
<line x1="191" y1="85" x2="191" y2="85" stroke="red" />
<line x1="191" y1="85" x2="192" y2="84" stroke="red" />
<line x1="192" y1="84" x2="192" y2="83" stroke="red" />
<line x1="192" y1="83" x2="193" y2="82" stroke="red" />
<line x1="193" y1="82" x2="193" y2="81" stroke="red" />
<line x1="193" y1="81" x2="194" y2="80" stroke="red" />
<line x1="194" y1="80" x2="194" y2="79" stroke="red" />
<line x1="194" y1="79" x2="195" y2="78" stroke="red" />
<line x1="195" y1="78" x2="195" y2="77" stroke="red" />
<line x1="195" y1="77" x2="196" y2="76" stroke="red" />
<line x1="196" y1="76" x2="196" y2="75" stroke="red" />
<line x1="196" y1="75" x2="196" y2="74" stroke="red" />
<line x1="196" y1="74" x2="197" y2="73" stroke="red" />
<line x1="197" y1="73" x2="197" y2="72" stroke="red" />
<line x1="197" y1="72" x2="198" y2="71" stroke="red" />
<line x1="198" y1="71" x2="198" y2="70" stroke="red" />
<line x1="198" y1="70" x2="199" y2="69" stroke="red" />
<line x1="199" y1="69" x2="199" y2="68" stroke="red" />
<line x1="199" y1="68" x2="200" y2="67" stroke="red" />
<line x1="200" y1="67" x2="200" y2="66" stroke="red" />
<line x1="200" y1="66" x2="201" y2="65" stroke="red" />
<line x1="201" y1="65" x2="201" y2="64" stroke="red" />
<line x1="201" y1="64" x2="202" y2="63" stroke="red" />
<line x1="202" y1="63" x2="202" y2="63" stroke="red" />
<line x1="202" y1="63" x2="203" y2="62" stroke="red" />
<line x1="203" y1="62" x2="203" y2="61" stroke="red" />
<line x1="203" y1="61" x2="204" y2="60" stroke="red" />
<line x1="204" y1="60" x2="204" y2="59" stroke="red" />
<line x1="204" y1="59" x2="205" y2="58" stroke="red" />
<line x1="205" y1="58" x2="205" y2="57" stroke="red" />
<line x1="205" y1="57" x2="206" y2="56" stroke="red" />
<line x1="206" y1="56" x2="206" y2="55" stroke="red" />
<line x1="206" y1="55" x2="207" y2="54" stroke="red" />
<line x1="207" y1="54" x2="207" y2="53" stroke="red" />
<line x1="207" y1="53" x2="208" y2="52" stroke="red" />
<line x1="208" y1="52" x2="208" y2="51" stroke="red" />
<line x1="208" y1="51" x2="209" y2="50" stroke="red" />
<line x1="209" y1="50" x2="209" y2="49" stroke="red" />
<line x1="209" y1="49" x2="210" y2="48" stroke="red" />
<line x1="210" y1="48" x2="210" y2="47" stroke="red" />
<line x1="210" y1="47" x2="211" y2="46" stroke="red" />
<line x1="211" y1="46" x2="211" y2="45" stroke="red" />
<line x1="211" y1="45" x2="212" y2="44" stroke="red" />
<line x1="212" y1="44" x2="212" y2="43" stroke="red" />
<line x1="212" y1="43" x2="213" y2="42" stroke="red" />
<line x1="213" y1="42" x2="213" y2="41" stroke="red" />
<line x1="213" y1="41" x2="214" y2="40" stroke="red" />
<line x1="214" y1="40" x2="214" y2="39" stroke="red" />
<line x1="214" y1="39" x2="215" y2="38" stroke="red" />
<line x1="215" y1="38" x2="215" y2="37" stroke="red" />
<line x1="215" y1="37" x2="216" y2="36" stroke="red" />
<line x1="216" y1="36" x2="216" y2="35" stroke="red" />
<line x1="216" y1="35" x2="217" y2="34" stroke="red" />
<line x1="217" y1="34" x2="217" y2="33" stroke="red" />
<line x1="217" y1="33" x2="218" y2="32" stroke="red" />
<line x1="218" y1="32" x2="218" y2="31" stroke="red" />
<line x1="218" y1="31" x2="219" y2="30" stroke="red" />
<line x1="219" y1="30" x2="219" y2="29" stroke="red" />
<line x1="219" y1="29" x2="220" y2="28" stroke="red" />
<line x1="220" y1="28" x2="220" y2="27" stroke="red" />
<line x1="220" y1="27" x2="221" y2="26" stroke="red" />
<line x1="221" y1="26" x2="221" y2="25" stroke="red" />
<line x1="221" y1="25" x2="222" y2="24" stroke="red" />
<line x1="222" y1="24" x2="222" y2="23" stroke="red" />
<line x1="222" y1="23" x2="223" y2="22" stroke="red" />
<line x1="223" y1="22" x2="223" y2="22" stroke="red" />
<line x1="223" y1="22" x2="224" y2="21" stroke="red" />
<line x1="224" y1="21" x2="224" y2="20" stroke="red" />
<line x1="224" y1="20" x2="225" y2="19" stroke="red" />
<line x1="225" y1="19" x2="225" y2="18" stroke="red" />
<line x1="225" y1="18" x2="226" y2="17" stroke="red" />
<line x1="226" y1="17" x2="226" y2="16" stroke="red" />
<line x1="226" y1="16" x2="227" y2="15" stroke="red" />
<line x1="227" y1="15" x2="227" y2="14" stroke="red" />
<line x1="227" y1="14" x2="228" y2="13" stroke="red" />
<line x1="228" y1="13" x2="228" y2="12" stroke="red" />
<line x1="228" y1="12" x2="229" y2="11" stroke="red" />
<line x1="229" y1="11" x2="229" y2="10" stroke="red" />
<line x1="229" y1="10" x2="230" y2="9" stroke="red" />
<line x1="230" y1="9" x2="230" y2="8" stroke="red" />
<line x1="230" y1="8" x2="231" y2="7" stroke="red" />
<line x1="231" y1="7" x2="231" y2="6" stroke="red" />
<line x1="231" y1="6" x2="232" y2="5" stroke="red" />
<line x1="232" y1="5" x2="232" y2="4" stroke="red" />
<line x1="232" y1="4" x2="233" y2="3" stroke="red" />
<line x1="233" y1="3" x2="233" y2="2" stroke="red" />
<line x1="233" y1="2" x2="234" y2="1" stroke="red" />
<line x1="234" y1="1" x2="234" y2="0" stroke="red" />
<line x1="234" y1="0" x2="235" y2="-1" stroke="red" />
<line x1="235" y1="-1" x2="235" y2="-2" stroke="red" />
<line x1="235" y1="-2" x2="236" y2="-3" stroke="red" />
<line x1="236" y1="-3" x2="236" y2="-4" stroke="red" />
<line x1="236" y1="-4" x2="237" y2="-5" stroke="red" />
<line x1="237" y1="-5" x2="237" y2="-6" stroke="red" />
<line x1="237" y1="-6" x2="238" y2="-7" stroke="red" />
<line x1="238" y1="-7" x2="239" y2="-8" stroke="red" />
<line x1="239" y1="-8" x2="239" y2="-9" stroke="red" />
<line x1="239" y1="-9" x2="240" y2="-10" stroke="red" />
<line x1="240" y1="-10" x2="240" y2="-11" stroke="red" />
<line x1="240" y1="-11" x2="241" y2="-12" stroke="red" />
<line x1="241" y1="-12" x2="241" y2="-13" stroke="red" />
<line x1="241" y1="-13" x2="242" y2="-14" stroke="red" />
<line x1="242" y1="-14" x2="242" y2="-15" stroke="red" />
<line x1="242" y1="-15" x2="243" y2="-16" stroke="red" />
<line x1="243" y1="-16" x2="243" y2="-17" stroke="red" />
<line x1="243" y1="-17" x2="244" y2="-18" stroke="red" />
<line x1="244" y1="-18" x2="244" y2="-19" stroke="red" />
<line x1="244" y1="-19" x2="245" y2="-20" stroke="red" />
<line x1="245" y1="-20" x2="245" y2="-21" stroke="red" />
<line x1="245" y1="-21" x2="246" y2="-22" stroke="red" />
<line x1="246" y1="-22" x2="246" y2="-23" stroke="red" />
<line x1="246" y1="-23" x2="247" y2="-24" stroke="red" />
<line x1="247" y1="-24" x2="247" y2="-25" stroke="red" />
<line x1="247" y1="-25" x2="248" y2="-26" stroke="red" />
<line x1="248" y1="-26" x2="248" y2="-27" stroke="red" />
<line x1="248" y1="-27" x2="249" y2="-28" stroke="red" />
<line x1="249" y1="-28" x2="249" y2="-29" stroke="red" />
<line x1="249" y1="-29" x2="250" y2="-30" stroke="red" />
<line x1="0" y1="150" x2="300" y2="150" stroke="black" />
<line x1="150" y1="0" x2="150" y2="300" stroke="black" />
</svg>